<mxfile host="app.diagrams.net" modified="2023-05-23T07:09:54.788Z" agent="Mozilla/5.0 (Macintosh; Intel Mac OS X 10_15_7) AppleWebKit/537.36 (KHTML, like Gecko) Chrome/113.0.0.0 Safari/537.36" etag="gKxV5XIw7RL4DXJj9OtN" version="21.3.2" type="github">
  <diagram name="Page-1" id="13e1069c-82ec-6db2-03f1-153e76fe0fe0">
    <mxGraphModel dx="1866" dy="943" grid="0" gridSize="10" guides="1" tooltips="1" connect="1" arrows="1" fold="1" page="0" pageScale="1" pageWidth="1100" pageHeight="850" background="none" math="0" shadow="0">
      <root>
        <mxCell id="0" />
        <mxCell id="1" parent="0" />
        <mxCell id="7baba1c4bc27f4b0-2" value="StoreApi" style="shape=umlLifeline;perimeter=lifelinePerimeter;whiteSpace=wrap;html=1;container=1;collapsible=0;recursiveResize=0;outlineConnect=0;rounded=1;shadow=0;comic=0;labelBackgroundColor=none;strokeWidth=1;fontFamily=Verdana;fontSize=12;align=center;" parent="1" vertex="1">
          <mxGeometry x="240" y="82" width="105" height="837" as="geometry" />
        </mxCell>
        <mxCell id="adu6NJV0Gvja6ifed4p5-8" value="" style="html=1;points=[];perimeter=orthogonalPerimeter;rounded=0;shadow=0;comic=0;labelBackgroundColor=none;strokeWidth=1;fontFamily=Verdana;fontSize=12;align=center;" vertex="1" parent="7baba1c4bc27f4b0-2">
          <mxGeometry x="48" y="296" width="10" height="179" as="geometry" />
        </mxCell>
        <mxCell id="adu6NJV0Gvja6ifed4p5-9" value="返回数据" style="html=1;verticalAlign=bottom;endArrow=open;dashed=1;endSize=8;labelBackgroundColor=none;fontFamily=Verdana;fontSize=12;edgeStyle=elbowEdgeStyle;elbow=vertical;" edge="1" parent="7baba1c4bc27f4b0-2">
          <mxGeometry relative="1" as="geometry">
            <mxPoint x="58" y="456" as="targetPoint" />
            <Array as="points">
              <mxPoint x="163" y="456" />
            </Array>
            <mxPoint x="211.5" y="456" as="sourcePoint" />
          </mxGeometry>
        </mxCell>
        <mxCell id="adu6NJV0Gvja6ifed4p5-10" value="" style="html=1;points=[];perimeter=orthogonalPerimeter;rounded=0;shadow=0;comic=0;labelBackgroundColor=none;strokeWidth=1;fontFamily=Verdana;fontSize=12;align=center;" vertex="1" parent="7baba1c4bc27f4b0-2">
          <mxGeometry x="208" y="316" width="10" height="154" as="geometry" />
        </mxCell>
        <mxCell id="adu6NJV0Gvja6ifed4p5-11" value="返回数据" style="html=1;verticalAlign=bottom;endArrow=open;dashed=1;endSize=8;labelBackgroundColor=none;fontFamily=Verdana;fontSize=12;edgeStyle=elbowEdgeStyle;elbow=vertical;" edge="1" parent="7baba1c4bc27f4b0-2">
          <mxGeometry relative="1" as="geometry">
            <mxPoint x="218" y="425.5" as="targetPoint" />
            <Array as="points">
              <mxPoint x="323" y="425.5" />
            </Array>
            <mxPoint x="348" y="425.5" as="sourcePoint" />
          </mxGeometry>
        </mxCell>
        <mxCell id="adu6NJV0Gvja6ifed4p5-12" value="返回数据" style="html=1;verticalAlign=bottom;endArrow=open;dashed=1;endSize=8;labelBackgroundColor=none;fontFamily=Verdana;fontSize=12;edgeStyle=elbowEdgeStyle;elbow=vertical;" edge="1" parent="7baba1c4bc27f4b0-2">
          <mxGeometry relative="1" as="geometry">
            <mxPoint x="358" y="396" as="targetPoint" />
            <Array as="points">
              <mxPoint x="463" y="396" />
            </Array>
            <mxPoint x="488" y="396" as="sourcePoint" />
          </mxGeometry>
        </mxCell>
        <mxCell id="adu6NJV0Gvja6ifed4p5-13" value="查看数据库" style="endArrow=classic;html=1;rounded=0;" edge="1" parent="7baba1c4bc27f4b0-2">
          <mxGeometry width="50" height="50" relative="1" as="geometry">
            <mxPoint x="503" y="356" as="sourcePoint" />
            <mxPoint x="632.5" y="356" as="targetPoint" />
          </mxGeometry>
        </mxCell>
        <mxCell id="adu6NJV0Gvja6ifed4p5-14" value="返回数据" style="html=1;verticalAlign=bottom;endArrow=open;dashed=1;endSize=8;labelBackgroundColor=none;fontFamily=Verdana;fontSize=12;edgeStyle=elbowEdgeStyle;elbow=vertical;" edge="1" parent="7baba1c4bc27f4b0-2">
          <mxGeometry relative="1" as="geometry">
            <mxPoint x="498" y="386" as="targetPoint" />
            <Array as="points">
              <mxPoint x="603" y="386" />
            </Array>
            <mxPoint x="628" y="386" as="sourcePoint" />
          </mxGeometry>
        </mxCell>
        <mxCell id="adu6NJV0Gvja6ifed4p5-15" value="" style="html=1;points=[];perimeter=orthogonalPerimeter;outlineConnect=0;targetShapes=umlLifeline;portConstraint=eastwest;newEdgeStyle={&quot;edgeStyle&quot;:&quot;elbowEdgeStyle&quot;,&quot;elbow&quot;:&quot;vertical&quot;,&quot;curved&quot;:0,&quot;rounded&quot;:0};" vertex="1" parent="7baba1c4bc27f4b0-2">
          <mxGeometry x="628" y="346" width="10" height="40" as="geometry" />
        </mxCell>
        <mxCell id="adu6NJV0Gvja6ifed4p5-16" value="" style="html=1;points=[];perimeter=orthogonalPerimeter;rounded=0;shadow=0;comic=0;labelBackgroundColor=none;strokeWidth=1;fontFamily=Verdana;fontSize=12;align=center;" vertex="1" parent="7baba1c4bc27f4b0-2">
          <mxGeometry x="348" y="336" width="10" height="104" as="geometry" />
        </mxCell>
        <mxCell id="adu6NJV0Gvja6ifed4p5-17" value="调用修改商品信息服务" style="html=1;verticalAlign=bottom;endArrow=block;labelBackgroundColor=none;fontFamily=Verdana;fontSize=12;edgeStyle=elbowEdgeStyle;elbow=vertical;" edge="1" parent="7baba1c4bc27f4b0-2" source="adu6NJV0Gvja6ifed4p5-10" target="adu6NJV0Gvja6ifed4p5-16">
          <mxGeometry relative="1" as="geometry">
            <mxPoint x="273" y="336" as="sourcePoint" />
            <Array as="points">
              <mxPoint x="223" y="336" />
            </Array>
          </mxGeometry>
        </mxCell>
        <mxCell id="adu6NJV0Gvja6ifed4p5-18" value="" style="html=1;points=[];perimeter=orthogonalPerimeter;rounded=0;shadow=0;comic=0;labelBackgroundColor=none;strokeWidth=1;fontFamily=Verdana;fontSize=12;align=center;" vertex="1" parent="7baba1c4bc27f4b0-2">
          <mxGeometry x="488" y="346" width="10" height="60" as="geometry" />
        </mxCell>
        <mxCell id="adu6NJV0Gvja6ifed4p5-19" value="修改商品信息" style="html=1;verticalAlign=bottom;endArrow=block;entryX=0;entryY=0;labelBackgroundColor=none;fontFamily=Verdana;fontSize=12;edgeStyle=elbowEdgeStyle;elbow=vertical;" edge="1" parent="7baba1c4bc27f4b0-2" source="adu6NJV0Gvja6ifed4p5-16" target="adu6NJV0Gvja6ifed4p5-18">
          <mxGeometry relative="1" as="geometry">
            <mxPoint x="413" y="346" as="sourcePoint" />
          </mxGeometry>
        </mxCell>
        <mxCell id="adu6NJV0Gvja6ifed4p5-20" value="调用修改商品信息函数" style="html=1;verticalAlign=bottom;endArrow=block;entryX=0;entryY=0;labelBackgroundColor=none;fontFamily=Verdana;fontSize=12;edgeStyle=elbowEdgeStyle;elbow=vertical;" edge="1" parent="7baba1c4bc27f4b0-2" source="adu6NJV0Gvja6ifed4p5-8" target="adu6NJV0Gvja6ifed4p5-10">
          <mxGeometry relative="1" as="geometry">
            <mxPoint x="133" y="316" as="sourcePoint" />
          </mxGeometry>
        </mxCell>
        <mxCell id="adu6NJV0Gvja6ifed4p5-21" value="发送请求（鉴权）" style="html=1;verticalAlign=bottom;endArrow=block;labelBackgroundColor=none;fontFamily=Verdana;fontSize=12;edgeStyle=elbowEdgeStyle;elbow=vertical;" edge="1" parent="7baba1c4bc27f4b0-2">
          <mxGeometry x="0.5472" relative="1" as="geometry">
            <mxPoint x="50" y="306" as="sourcePoint" />
            <mxPoint x="45" y="306" as="targetPoint" />
            <Array as="points">
              <mxPoint x="-85" y="306" />
            </Array>
            <mxPoint as="offset" />
          </mxGeometry>
        </mxCell>
        <mxCell id="-mmKebMZnPX7TyjY1fdx-10" value="返回请求结构" style="html=1;verticalAlign=bottom;endArrow=open;dashed=1;endSize=8;labelBackgroundColor=none;fontFamily=Verdana;fontSize=12;edgeStyle=elbowEdgeStyle;elbow=vertical;exitX=0;exitY=0.695;exitDx=0;exitDy=0;exitPerimeter=0;" parent="7baba1c4bc27f4b0-2" edge="1" target="7baba1c4bc27f4b0-9">
          <mxGeometry x="0.0355" y="-3" relative="1" as="geometry">
            <mxPoint x="-75" y="730" as="targetPoint" />
            <Array as="points">
              <mxPoint x="-1" y="733" />
            </Array>
            <mxPoint x="44" y="732" as="sourcePoint" />
            <mxPoint as="offset" />
          </mxGeometry>
        </mxCell>
        <mxCell id="adu6NJV0Gvja6ifed4p5-29" value="返回请求结构" style="html=1;verticalAlign=bottom;endArrow=open;dashed=1;endSize=8;labelBackgroundColor=none;fontFamily=Verdana;fontSize=12;edgeStyle=elbowEdgeStyle;elbow=vertical;exitX=0;exitY=0.695;exitDx=0;exitDy=0;exitPerimeter=0;" edge="1" parent="7baba1c4bc27f4b0-2">
          <mxGeometry x="0.0355" y="-3" relative="1" as="geometry">
            <mxPoint x="-86" y="467" as="targetPoint" />
            <Array as="points">
              <mxPoint x="9" y="467" />
            </Array>
            <mxPoint x="54" y="466" as="sourcePoint" />
            <mxPoint as="offset" />
          </mxGeometry>
        </mxCell>
        <mxCell id="adu6NJV0Gvja6ifed4p5-28" value="发送请求（鉴权）" style="html=1;verticalAlign=bottom;endArrow=block;labelBackgroundColor=none;fontFamily=Verdana;fontSize=12;edgeStyle=elbowEdgeStyle;elbow=vertical;" edge="1" parent="7baba1c4bc27f4b0-2">
          <mxGeometry x="0.5472" relative="1" as="geometry">
            <mxPoint x="48" y="565" as="sourcePoint" />
            <mxPoint x="43" y="565" as="targetPoint" />
            <Array as="points">
              <mxPoint x="-87" y="565" />
            </Array>
            <mxPoint as="offset" />
          </mxGeometry>
        </mxCell>
        <mxCell id="7baba1c4bc27f4b0-3" value="StoreController" style="shape=umlLifeline;perimeter=lifelinePerimeter;whiteSpace=wrap;html=1;container=1;collapsible=0;recursiveResize=0;outlineConnect=0;rounded=1;shadow=0;comic=0;labelBackgroundColor=none;strokeWidth=1;fontFamily=Verdana;fontSize=12;align=center;" parent="1" vertex="1">
          <mxGeometry x="400" y="80" width="101" height="832" as="geometry" />
        </mxCell>
        <mxCell id="7baba1c4bc27f4b0-4" value="service" style="shape=umlLifeline;perimeter=lifelinePerimeter;whiteSpace=wrap;html=1;container=1;collapsible=0;recursiveResize=0;outlineConnect=0;rounded=1;shadow=0;comic=0;labelBackgroundColor=none;strokeWidth=1;fontFamily=Verdana;fontSize=12;align=center;" parent="1" vertex="1">
          <mxGeometry x="540" y="80" width="100" height="824" as="geometry" />
        </mxCell>
        <mxCell id="7baba1c4bc27f4b0-5" value="dao" style="shape=umlLifeline;perimeter=lifelinePerimeter;whiteSpace=wrap;html=1;container=1;collapsible=0;recursiveResize=0;outlineConnect=0;rounded=1;shadow=0;comic=0;labelBackgroundColor=none;strokeWidth=1;fontFamily=Verdana;fontSize=12;align=center;" parent="1" vertex="1">
          <mxGeometry x="680" y="80" width="100" height="826" as="geometry" />
        </mxCell>
        <mxCell id="7baba1c4bc27f4b0-6" value="database" style="shape=umlLifeline;perimeter=lifelinePerimeter;whiteSpace=wrap;html=1;container=1;collapsible=0;recursiveResize=0;outlineConnect=0;rounded=1;shadow=0;comic=0;labelBackgroundColor=none;strokeWidth=1;fontFamily=Verdana;fontSize=12;align=center;" parent="1" vertex="1">
          <mxGeometry x="820" y="80" width="100" height="821" as="geometry" />
        </mxCell>
        <mxCell id="7baba1c4bc27f4b0-8" value="view" style="shape=umlLifeline;perimeter=lifelinePerimeter;whiteSpace=wrap;html=1;container=1;collapsible=0;recursiveResize=0;outlineConnect=0;rounded=1;shadow=0;comic=0;labelBackgroundColor=none;strokeWidth=1;fontFamily=Verdana;fontSize=12;align=center;" parent="1" vertex="1">
          <mxGeometry x="100" y="80" width="100" height="840" as="geometry" />
        </mxCell>
        <mxCell id="7baba1c4bc27f4b0-9" value="" style="html=1;points=[];perimeter=orthogonalPerimeter;rounded=0;shadow=0;comic=0;labelBackgroundColor=none;strokeWidth=1;fontFamily=Verdana;fontSize=12;align=center;" parent="7baba1c4bc27f4b0-8" vertex="1">
          <mxGeometry x="45" y="100" width="10" height="670" as="geometry" />
        </mxCell>
        <mxCell id="adu6NJV0Gvja6ifed4p5-1" value="" style="endArrow=classic;html=1;rounded=0;" edge="1" parent="7baba1c4bc27f4b0-8" source="7baba1c4bc27f4b0-8" target="7baba1c4bc27f4b0-9">
          <mxGeometry width="50" height="50" relative="1" as="geometry">
            <mxPoint x="78" y="159" as="sourcePoint" />
            <mxPoint x="128" y="109" as="targetPoint" />
            <Array as="points">
              <mxPoint x="98" y="110" />
              <mxPoint x="98" y="140" />
            </Array>
          </mxGeometry>
        </mxCell>
        <mxCell id="adu6NJV0Gvja6ifed4p5-2" value="点击进入店铺" style="edgeLabel;html=1;align=center;verticalAlign=middle;resizable=0;points=[];" vertex="1" connectable="0" parent="adu6NJV0Gvja6ifed4p5-1">
          <mxGeometry x="-0.0945" y="-2" relative="1" as="geometry">
            <mxPoint x="8" y="-20" as="offset" />
          </mxGeometry>
        </mxCell>
        <mxCell id="adu6NJV0Gvja6ifed4p5-22" value="" style="html=1;points=[];perimeter=orthogonalPerimeter;outlineConnect=0;targetShapes=umlLifeline;portConstraint=eastwest;newEdgeStyle={&quot;edgeStyle&quot;:&quot;elbowEdgeStyle&quot;,&quot;elbow&quot;:&quot;vertical&quot;,&quot;curved&quot;:0,&quot;rounded&quot;:0};" vertex="1" parent="7baba1c4bc27f4b0-8">
          <mxGeometry x="48" y="502" width="10" height="40" as="geometry" />
        </mxCell>
        <mxCell id="adu6NJV0Gvja6ifed4p5-23" value="选择，查看商品" style="html=1;align=left;spacingLeft=2;endArrow=block;rounded=0;edgeStyle=orthogonalEdgeStyle;curved=0;rounded=0;" edge="1" target="adu6NJV0Gvja6ifed4p5-22" parent="7baba1c4bc27f4b0-8">
          <mxGeometry relative="1" as="geometry">
            <mxPoint x="53" y="482" as="sourcePoint" />
            <Array as="points">
              <mxPoint x="83" y="512" />
            </Array>
          </mxGeometry>
        </mxCell>
        <mxCell id="adu6NJV0Gvja6ifed4p5-24" value="" style="html=1;points=[];perimeter=orthogonalPerimeter;outlineConnect=0;targetShapes=umlLifeline;portConstraint=eastwest;newEdgeStyle={&quot;edgeStyle&quot;:&quot;elbowEdgeStyle&quot;,&quot;elbow&quot;:&quot;vertical&quot;,&quot;curved&quot;:0,&quot;rounded&quot;:0};" vertex="1" parent="7baba1c4bc27f4b0-8">
          <mxGeometry x="50" y="249" width="10" height="40" as="geometry" />
        </mxCell>
        <mxCell id="adu6NJV0Gvja6ifed4p5-25" value="修改，添加商品（商家）" style="html=1;align=left;spacingLeft=2;endArrow=block;rounded=0;edgeStyle=orthogonalEdgeStyle;curved=0;rounded=0;" edge="1" target="adu6NJV0Gvja6ifed4p5-24" parent="7baba1c4bc27f4b0-8">
          <mxGeometry relative="1" as="geometry">
            <mxPoint x="55" y="229" as="sourcePoint" />
            <Array as="points">
              <mxPoint x="85" y="259" />
            </Array>
          </mxGeometry>
        </mxCell>
        <mxCell id="adu6NJV0Gvja6ifed4p5-26" value="" style="html=1;points=[];perimeter=orthogonalPerimeter;outlineConnect=0;targetShapes=umlLifeline;portConstraint=eastwest;newEdgeStyle={&quot;edgeStyle&quot;:&quot;elbowEdgeStyle&quot;,&quot;elbow&quot;:&quot;vertical&quot;,&quot;curved&quot;:0,&quot;rounded&quot;:0};" vertex="1" parent="7baba1c4bc27f4b0-8">
          <mxGeometry x="50" y="180" width="10" height="40" as="geometry" />
        </mxCell>
        <mxCell id="adu6NJV0Gvja6ifed4p5-27" value="浏览商品信息" style="html=1;align=left;spacingLeft=2;endArrow=block;rounded=0;edgeStyle=orthogonalEdgeStyle;curved=0;rounded=0;" edge="1" target="adu6NJV0Gvja6ifed4p5-26" parent="7baba1c4bc27f4b0-8">
          <mxGeometry relative="1" as="geometry">
            <mxPoint x="55" y="160" as="sourcePoint" />
            <Array as="points">
              <mxPoint x="85" y="190" />
            </Array>
          </mxGeometry>
        </mxCell>
        <mxCell id="-mmKebMZnPX7TyjY1fdx-11" value="展示结果" style="html=1;verticalAlign=bottom;endArrow=open;dashed=1;endSize=8;labelBackgroundColor=none;fontFamily=Verdana;fontSize=12;edgeStyle=elbowEdgeStyle;elbow=vertical;exitX=0;exitY=0.695;exitDx=0;exitDy=0;exitPerimeter=0;" parent="7baba1c4bc27f4b0-8" edge="1">
          <mxGeometry x="0.0071" relative="1" as="geometry">
            <mxPoint x="-92" y="754" as="targetPoint" />
            <Array as="points">
              <mxPoint x="3" y="754" />
            </Array>
            <mxPoint x="48" y="753" as="sourcePoint" />
            <mxPoint as="offset" />
          </mxGeometry>
        </mxCell>
        <mxCell id="7baba1c4bc27f4b0-11" value="查看店铺详情" style="html=1;verticalAlign=bottom;endArrow=block;labelBackgroundColor=none;fontFamily=Verdana;fontSize=12;edgeStyle=elbowEdgeStyle;elbow=vertical;" parent="1" source="7baba1c4bc27f4b0-9" edge="1">
          <mxGeometry x="0.5472" relative="1" as="geometry">
            <mxPoint x="220" y="190" as="sourcePoint" />
            <mxPoint x="140" y="180" as="targetPoint" />
            <Array as="points">
              <mxPoint x="10" y="180" />
            </Array>
            <mxPoint as="offset" />
          </mxGeometry>
        </mxCell>
        <mxCell id="-mmKebMZnPX7TyjY1fdx-7" value="user" style="shape=umlLifeline;perimeter=lifelinePerimeter;whiteSpace=wrap;html=1;container=1;collapsible=0;recursiveResize=0;outlineConnect=0;rounded=1;shadow=0;comic=0;labelBackgroundColor=none;strokeWidth=1;fontFamily=Verdana;fontSize=12;align=center;" parent="1" vertex="1">
          <mxGeometry x="-40" y="80" width="100" height="843" as="geometry" />
        </mxCell>
        <mxCell id="-mmKebMZnPX7TyjY1fdx-8" value="" style="html=1;points=[];perimeter=orthogonalPerimeter;rounded=0;shadow=0;comic=0;labelBackgroundColor=none;strokeWidth=1;fontFamily=Verdana;fontSize=12;align=center;" parent="-mmKebMZnPX7TyjY1fdx-7" vertex="1">
          <mxGeometry x="45" y="90" width="10" height="704" as="geometry" />
        </mxCell>
        <mxCell id="7baba1c4bc27f4b0-10" value="" style="html=1;points=[];perimeter=orthogonalPerimeter;rounded=0;shadow=0;comic=0;labelBackgroundColor=none;strokeWidth=1;fontFamily=Verdana;fontSize=12;align=center;" parent="1" vertex="1">
          <mxGeometry x="289" y="637" width="10" height="230" as="geometry" />
        </mxCell>
        <mxCell id="-mmKebMZnPX7TyjY1fdx-4" value="返回数据" style="html=1;verticalAlign=bottom;endArrow=open;dashed=1;endSize=8;labelBackgroundColor=none;fontFamily=Verdana;fontSize=12;edgeStyle=elbowEdgeStyle;elbow=vertical;exitX=0;exitY=0.695;exitDx=0;exitDy=0;exitPerimeter=0;" parent="1" source="7baba1c4bc27f4b0-13" edge="1">
          <mxGeometry relative="1" as="geometry">
            <mxPoint x="299" y="797" as="targetPoint" />
            <Array as="points">
              <mxPoint x="404" y="797" />
            </Array>
            <mxPoint x="429" y="797" as="sourcePoint" />
          </mxGeometry>
        </mxCell>
        <mxCell id="7baba1c4bc27f4b0-13" value="" style="html=1;points=[];perimeter=orthogonalPerimeter;rounded=0;shadow=0;comic=0;labelBackgroundColor=none;strokeWidth=1;fontFamily=Verdana;fontSize=12;align=center;" parent="1" vertex="1">
          <mxGeometry x="449" y="655" width="10" height="200" as="geometry" />
        </mxCell>
        <mxCell id="-mmKebMZnPX7TyjY1fdx-5" value="返回数据" style="html=1;verticalAlign=bottom;endArrow=open;dashed=1;endSize=8;labelBackgroundColor=none;fontFamily=Verdana;fontSize=12;edgeStyle=elbowEdgeStyle;elbow=vertical;" parent="1" edge="1">
          <mxGeometry relative="1" as="geometry">
            <mxPoint x="459" y="764.5" as="targetPoint" />
            <Array as="points">
              <mxPoint x="564" y="764.5" />
            </Array>
            <mxPoint x="589" y="764.5" as="sourcePoint" />
          </mxGeometry>
        </mxCell>
        <mxCell id="-mmKebMZnPX7TyjY1fdx-6" value="返回数据" style="html=1;verticalAlign=bottom;endArrow=open;dashed=1;endSize=8;labelBackgroundColor=none;fontFamily=Verdana;fontSize=12;edgeStyle=elbowEdgeStyle;elbow=vertical;" parent="1" edge="1">
          <mxGeometry relative="1" as="geometry">
            <mxPoint x="599" y="735" as="targetPoint" />
            <Array as="points">
              <mxPoint x="704" y="735" />
            </Array>
            <mxPoint x="729" y="735" as="sourcePoint" />
          </mxGeometry>
        </mxCell>
        <mxCell id="-mmKebMZnPX7TyjY1fdx-2" value="查看数据库" style="endArrow=classic;html=1;rounded=0;" parent="1" edge="1">
          <mxGeometry width="50" height="50" relative="1" as="geometry">
            <mxPoint x="744" y="695" as="sourcePoint" />
            <mxPoint x="873.5" y="695" as="targetPoint" />
          </mxGeometry>
        </mxCell>
        <mxCell id="-mmKebMZnPX7TyjY1fdx-3" value="返回数据" style="html=1;verticalAlign=bottom;endArrow=open;dashed=1;endSize=8;labelBackgroundColor=none;fontFamily=Verdana;fontSize=12;edgeStyle=elbowEdgeStyle;elbow=vertical;" parent="1" edge="1">
          <mxGeometry relative="1" as="geometry">
            <mxPoint x="739" y="725" as="targetPoint" />
            <Array as="points">
              <mxPoint x="844" y="725" />
            </Array>
            <mxPoint x="869" y="725" as="sourcePoint" />
          </mxGeometry>
        </mxCell>
        <mxCell id="-mmKebMZnPX7TyjY1fdx-1" value="" style="html=1;points=[];perimeter=orthogonalPerimeter;outlineConnect=0;targetShapes=umlLifeline;portConstraint=eastwest;newEdgeStyle={&quot;edgeStyle&quot;:&quot;elbowEdgeStyle&quot;,&quot;elbow&quot;:&quot;vertical&quot;,&quot;curved&quot;:0,&quot;rounded&quot;:0};" parent="1" vertex="1">
          <mxGeometry x="869" y="685" width="10" height="40" as="geometry" />
        </mxCell>
        <mxCell id="7baba1c4bc27f4b0-16" value="" style="html=1;points=[];perimeter=orthogonalPerimeter;rounded=0;shadow=0;comic=0;labelBackgroundColor=none;strokeWidth=1;fontFamily=Verdana;fontSize=12;align=center;" parent="1" vertex="1">
          <mxGeometry x="589" y="675" width="10" height="180" as="geometry" />
        </mxCell>
        <mxCell id="7baba1c4bc27f4b0-17" value="调用查看店铺信息服务" style="html=1;verticalAlign=bottom;endArrow=block;labelBackgroundColor=none;fontFamily=Verdana;fontSize=12;edgeStyle=elbowEdgeStyle;elbow=vertical;" parent="1" source="7baba1c4bc27f4b0-13" target="7baba1c4bc27f4b0-16" edge="1">
          <mxGeometry relative="1" as="geometry">
            <mxPoint x="514" y="675" as="sourcePoint" />
            <Array as="points">
              <mxPoint x="464" y="675" />
            </Array>
          </mxGeometry>
        </mxCell>
        <mxCell id="7baba1c4bc27f4b0-19" value="" style="html=1;points=[];perimeter=orthogonalPerimeter;rounded=0;shadow=0;comic=0;labelBackgroundColor=none;strokeWidth=1;fontFamily=Verdana;fontSize=12;align=center;" parent="1" vertex="1">
          <mxGeometry x="729" y="685" width="10" height="60" as="geometry" />
        </mxCell>
        <mxCell id="7baba1c4bc27f4b0-20" value="查看店铺信息" style="html=1;verticalAlign=bottom;endArrow=block;entryX=0;entryY=0;labelBackgroundColor=none;fontFamily=Verdana;fontSize=12;edgeStyle=elbowEdgeStyle;elbow=vertical;" parent="1" source="7baba1c4bc27f4b0-16" target="7baba1c4bc27f4b0-19" edge="1">
          <mxGeometry relative="1" as="geometry">
            <mxPoint x="654" y="685" as="sourcePoint" />
          </mxGeometry>
        </mxCell>
        <mxCell id="7baba1c4bc27f4b0-14" value="调用店铺信息函数" style="html=1;verticalAlign=bottom;endArrow=block;entryX=0;entryY=0;labelBackgroundColor=none;fontFamily=Verdana;fontSize=12;edgeStyle=elbowEdgeStyle;elbow=vertical;" parent="1" source="7baba1c4bc27f4b0-10" target="7baba1c4bc27f4b0-13" edge="1">
          <mxGeometry relative="1" as="geometry">
            <mxPoint x="374" y="655" as="sourcePoint" />
          </mxGeometry>
        </mxCell>
      </root>
    </mxGraphModel>
  </diagram>
</mxfile>
